# xmcd CD database file generated by Grip 3.2.0
# 
# Track frame offsets:
#       182
#       24892
#       48880
#       67720
#       88975
#       108180
#       130535
#       157327
#       188217
#       215190
#       239357
#       281772
# 
# Disc length: 3999 seconds
# 
# Revision: 8
# Processed by: cddbd v1.5.2PL0 Copyright (c) Steve Scherf et al.
# Submitted via: Grip 3.2.0
# 
DISCID=a50f9d0c
DTITLE=Various Artist - Classic Rare Groove Mastercuts Vol. 1
DYEAR=1993
DGENRE=Funk
TTITLE0=Eighties Ladies - Turned On To You
TTITLE1=Faze O - Riding High
TTITLE2=Leon Ware - Why I Came To California
TTITLE3=Breakwater - Say You Love Me Girl
TTITLE4=Steve Parks - Movin' In The Right Direction
TTITLE5=Patrice Rushen - Number One
TTITLE6=Rome Jefferies - Good Love
TTITLE7=Kinky Foxx - So Different
TTITLE8=Sass - Much Too Much
TTITLE9=Roberta Gilliam - All I Want Is My Baby
TTITLE10=Labelle - Moonshadow
TTITLE11=Ethel Beatty - It's Your Love
EXTD=RELEASED: 1993\nRECORD LABEL: Beechwood Music LTD\nCATALOG #: CUTSCD 1
EXTD=1\n\n NOTES     \n   \n\n\n\nGenre: Pop\nOrigin: ENG\nThis is an impor
EXTD=t title.\nFLUTE \n ID3G: 12
EXTT0=
EXTT1=
EXTT2=
EXTT3=
EXTT4=
EXTT5=
EXTT6=
EXTT7=
EXTT8=
EXTT9=
EXTT10=
EXTT11=
PLAYORDER=
